<?xml version="1.0" encoding="UTF-8"?>
<!DOCTYPE svg PUBLIC "-//W3C//DTD SVG 1.1//EN" "http://www.w3.org/Graphics/SVG/1.1/DTD/svg11.dtd">
<!-- Creator: CorelDRAW 2018 (64 Bit Versão de avaliação) -->
<svg xmlns="http://www.w3.org/2000/svg" xml:space="preserve" width="132.536mm" height="74.685mm" version="1.1" style="shape-rendering:geometricPrecision; text-rendering:geometricPrecision; image-rendering:optimizeQuality; fill-rule:evenodd; clip-rule:evenodd"
viewBox="0 0 13253.56 7468.5"
 xmlns:xlink="http://www.w3.org/1999/xlink">
 <defs>
  <style type="text/css">
   <![CDATA[
    .fil0 {fill:#58BDC5}
    .fil1 {fill:#4D4D4D;fill-rule:nonzero}
   ]]>
  </style>
 </defs>
 <g id="Layer_x0020_1">
  <metadata id="CorelCorpID_0Corel-Layer"/>
  <g id="_2248427659392">
   <g>
    <g>
     <path class="fil0" d="M5572.48 2357.98c-292.12,222.05 -258.54,700.13 -22.34,924.24 157.64,149.33 696.34,522.59 899.5,427.29 259.22,-121.85 611.84,-406.47 801.28,-651.4 91.95,-119.11 216.62,-386.01 207.2,-558.12 -12.8,-239.24 -284.41,-440.23 -589.06,-408.23 -295.11,31.06 -396.71,343.51 -544.45,554.69 -79.36,-259.22 -488.95,-488.46 -752.13,-288.47zm762.27 124.79c142.62,-198.96 282.12,-450.11 539.62,-477.16 328.76,-34.61 637.49,215.7 654.27,472.65 32.36,495.18 -453.47,857.57 -722.76,1062.81 -110.81,84.44 -346.53,311.92 -477.36,308.01 -113.61,-3.24 -299.09,-157.15 -409.51,-232.8 -266.25,-182.46 -597.51,-324.53 -640.98,-688.2 -44.81,-372.83 219.78,-706.9 486.09,-731.33 284.73,-25.87 391.09,179.68 570.63,286.02z"/>
     <path class="fil0" d="M5484.62 2802.37c-12.15,155.37 146.35,350.61 241.22,438.84 136.8,127.03 487.36,366.65 661.66,352.06 180.89,-15.27 374.42,-324.29 476.73,-437.85 120.71,-134.19 376.57,-337.35 379.67,-547.61 3.11,-209.47 -213.79,-290.48 -392.25,-231.62 -195.41,64.34 -373.36,495.47 -532.23,494.8 -123.68,-0.3 -324.48,-270.5 -323.49,-365.75 -288.71,-142.98 -495.13,90.66 -511.31,297.13zm878.83 901.9c-321.12,-188.22 -1001.65,-419.61 -939.14,-905.5 26.32,-204.63 162.83,-350.68 328.7,-421 193.15,-5.73 362.38,98.65 435.89,225.83 44.75,77.29 24.97,163 110.5,171.05 141.26,13.57 256.73,-285.71 351.35,-367.69 193.34,-167.22 636.13,-205.19 665.86,144.79 14.35,169.43 -136.69,350.08 -227.46,461.8 -219.54,270.38 -440.23,494.38 -725.7,690.72z"/>
     <path class="fil0" d="M6886.33 2655c120.46,-55.86 197.68,172.47 66.92,177.17 -79.79,2.93 -152.39,-137.25 -66.92,-177.17z"/>
     <path class="fil0" d="M7738.16 3010.25c-92.72,110.08 -239.25,159.4 -344.38,255.67 98.54,-97.74 183.82,-258.91 344.38,-255.67z"/>
     <path class="fil0" d="M7717.96 3199.14c-109.09,82.72 -195.84,190.36 -302.44,275.76 40.16,-107.57 174.3,-328.08 302.44,-275.76z"/>
     <path class="fil0" d="M5575.35 4702.36c138.71,48.61 309.58,68.63 478.88,89.99 -0.79,-31.81 12.03,-75.82 -2.75,-95.36 -121.43,-5.07 -426.98,-111.17 -476.13,5.37zm-85.54 -13.91c0.92,-14.4 1.72,-28.7 2.63,-43.04 -50.67,-44.93 -162.69,-35.6 -247.91,-49.83 38.81,64.12 153.04,102.89 245.28,92.87zm640.31 -3.85c-4.71,44.93 -5.14,86.08 1.21,121.19 163.92,48.53 381.45,10.92 520.75,-28.52 0.25,-60.62 13.26,-92.79 8.36,-137.97 -171.48,21.06 -394.98,-16.6 -530.32,45.3zm-953.19 27.9c144.81,245.72 646.95,254.1 995.91,260.19 184.06,3.18 394.08,-22.95 590.9,-41.57 351.23,-32.97 753.55,-81.01 899.09,-273.37 -688.34,258.83 -1704.14,318.05 -2485.9,54.75zm1579.97 -93.28c-15.19,34.61 -45.91,92.19 -25.7,136.92 143.73,1.84 324.12,-32.17 470.64,-57.55 12.08,-37 34.37,-133.83 -17.34,-139.38 -147.06,15.02 -266,61.66 -427.6,60.01zm-929.72 -212.7c-18.37,49.03 -0.98,121.56 6.6,173.32 141.02,32.05 314.33,24.73 424.34,-8.48 14.9,-44.63 24.01,-95.67 26.81,-154.09 -138.7,-24.3 -325.58,-24.37 -457.75,-10.75zm-558.48 78.08c107.14,74 341.39,78.14 487.48,90.43 11.23,-36.76 -5.19,-113.01 -7.15,-164.72 -147.25,5.31 -525.76,-175.58 -480.33,74.29zm2021.23 46.47c-7.8,31.25 -10,106.46 -0.29,146.99 148.04,-30.51 364.21,-77.77 343.34,-238.52 -121.12,22.9 -218.94,71.99 -343.05,91.53zm-2097.18 -77.11c24.97,-60.19 27.24,-170.58 -50.19,-167.47 -28.74,65.02 11.11,135.54 50.19,167.47zm1170.82 -49.15c-15.94,40.41 -26.74,86.56 -26.26,145.42 166.43,66.61 348.73,-33.82 538.03,-27.35 -0.12,-56.97 19.37,-131.19 -7.2,-164.9 -173.07,10.14 -323.19,46.27 -504.57,46.83zm600.91 -66.85c-12.82,40.42 -48.71,139.13 -1.47,164.35 152.52,-37.8 523.27,7.82 464.53,-239.63 -156.47,22.65 -317.33,40.48 -463.06,75.28zm568.63 -103.35c-19.97,30.39 -41.71,84.31 -25.17,128.13 67.89,-8.53 199.45,-18.43 190.49,-143.9 -65.45,-6.71 -108.8,12.03 -165.32,15.77zm-1995.12 -191.88c-7.34,104.45 19.47,178.5 45.05,253.54 142.37,36.37 309.59,25.02 457.76,10.87 2.62,-83.83 -6.59,-157.09 -11.49,-234.2 -133.94,-33.4 -359.76,-36.88 -491.32,-30.21zm577.47 35.52c-20.21,66.13 -18.74,163.32 -14.42,232.61 142.25,24.42 316.75,8.84 458.49,2.13 -3.54,-49.57 11.06,-182.72 -10.98,-242.85 -153.9,-7.88 -319.12,-28.94 -433.09,8.11zm-1042.55 74.18c126.26,56.84 225.28,137.61 415.38,138.04 17.1,-80.11 -10.8,-184.2 -27.17,-261.17 -187.73,-9.35 -557.08,-128.88 -388.21,123.13zm1570.94 -84.97c-20.22,60.5 -37.8,156.7 -13.31,215.43 182.17,27.05 346.26,-44.13 514.21,-63.61 -10.19,-50.55 5.44,-124.17 -24.9,-157.14 -164.16,-36.2 -324.91,22.64 -476,5.32zm554.08 -9.23c4.04,48.16 -0.43,103.73 8.24,147.62 175.7,-57.46 573.94,10.8 552.93,-268.81 -198.53,27.41 -396.33,55.74 -561.17,121.19zm699.09 -1660.98c-56.41,-111.17 -260.01,-285.71 -374.12,-386.4 -357.74,-315.25 -916.05,-733.63 -1177.9,-1101.7 -256.59,514.23 -690.16,884.55 -1089.85,1265.09 -219.85,209.15 -402.7,253.35 -395.24,658.97 6.65,366.29 73.62,746.75 151.77,1047.48 922.64,140.49 2070.69,186.89 2789.8,-70.76 34.3,-416.42 275.09,-1058.83 95.54,-1412.68zm-1471 -1682.3c-43.78,45.06 19.54,211.54 53.67,254.27 290.52,364.54 838.27,715.94 1203.65,1103.48 104.64,110.98 317.27,343.59 446.82,330.23 284.26,-29.37 343.53,-698.42 -68.42,-575.1 -23.33,24.61 6.16,51.9 -13.45,76.99 -27.71,11.6 -79.24,-3.73 -96.39,20.03 -46.4,139.79 108.12,221.66 182.3,132.23 -2.13,-48.84 -97.56,-52.39 -62.7,-107.64 74.84,-40.77 154.69,37.24 149.26,104.28 -15.8,199.27 -426.62,143.7 -337.17,-141.7 -481.19,-281 -993.54,-534.3 -1197.67,-1059.89 -120.59,-10.8 -203.91,-96.27 -259.9,-137.18zm294.63 -7.68c-88.16,25.69 -132.6,-26.88 -186.88,-54.65 -23.87,98.53 157.94,123.75 186.88,54.65zm-604.59 127.16c-74.89,200.84 -72.77,353.72 -196.08,515.56 -254.95,334.19 -648.67,581.21 -1090.42,711.41 114.84,358.56 -483.76,378.41 -439.37,111.49 23.74,-142.91 328.87,-102.14 203.67,64.41 -64.9,5.91 -47.82,-86.39 -118.08,-50.55 -22.65,105.37 166.67,123.87 238.21,66.61 259.29,-313.8 -369.52,-473.33 -424.54,-129.86 -35.16,218.98 129.74,357.2 349.88,358.84 322.35,2.27 648.29,-415.38 896.52,-654.2 275.71,-265.26 529.98,-498.05 669.79,-763.26 87.65,-166.11 101.75,-446.51 -65.16,-488.44 110.51,97.91 4.71,179.9 -24.42,257.99zm-206.64 -298.06c-51.83,143.42 128.03,243.84 198.35,150.61 -10.69,-27.82 -53.78,-35.89 -85.1,-22.63 -22.85,-28.64 -54.46,-49.63 -54.46,-98.49 16.9,-33.08 95.23,3.24 122.22,-18.43 -41.03,-29.68 -139.37,-50.3 -181.01,-11.06zm440.72 148.17c119.77,-152.25 90.16,-448.88 -16.18,-580.63 -85.47,164.21 -145.49,476.97 16.18,580.63zm155.37 -276.05c155.8,4.51 302.81,41.93 327.66,158.65 24.54,115.45 -69.67,165.51 -84.94,254.22 186.59,514.29 972.1,992.66 1176.21,989.25 82.4,-1.45 151.89,-80.76 237.89,-71.85 408.14,42.19 299.94,843.9 -157.56,734.25 17.89,654.71 -151.89,1353.85 -253.35,1870.09 -13.26,66.83 -73.09,149.19 -64.97,212.27 14.29,110.73 140.61,148.17 -24.54,257.99 -238.57,158.67 -831.74,207.56 -1181.98,230.09 -349.69,22.65 -1332.47,17.77 -1384.37,-275.45 -10.8,-60.62 34.32,-110.01 36.57,-170.82 6.95,-202.13 -177.35,-592.25 -218.5,-809.1 -76.01,-402.25 -111.29,-808.97 -113.3,-1252.68 -354.09,59.46 -616.3,-116.85 -570.22,-432.84 23.75,-161.97 232.29,-311.85 431.13,-259.03 64.12,17.15 98.25,98.22 157.4,113.49 138.27,35.84 325.46,-81.56 423.69,-138.29 367.15,-211.6 749.74,-495.91 804.81,-988.51 -298.23,-31.51 -260.56,-552.75 126.14,-364.23 56.22,-131.02 47.43,-452.14 166.96,-465.45 135.47,-15.19 122.78,299.63 165.27,407.95z"/>
    </g>
    <path class="fil1" d="M429.07 3226.08c130.96,0 237.21,49.12 318.79,147.33 81.6,98.21 122.4,226.87 122.4,386.03 0,158.12 -39.29,286.3 -117.86,384.51 -78.56,98.21 -181.3,147.3 -308.21,147.3 -133.96,0 -241.49,-48.6 -322.57,-145.79 -81.09,-97.21 -121.62,-225.39 -121.62,-384.51 0,-158.16 39.77,-286.82 119.35,-386.03 79.57,-99.23 182.81,-148.84 309.72,-148.84zm6.05 1031.93c116.84,0 210.78,-45.58 281.77,-136.74 71.01,-91.14 106.52,-211.27 106.52,-360.32 0,-147.06 -37.02,-267.19 -111.03,-360.35 -74.04,-93.19 -169.5,-139.76 -286.34,-139.76 -112.79,0 -204.46,46.09 -274.96,138.25 -70.51,92.16 -105.77,211.26 -105.77,357.32 0,152.08 35.51,273.72 106.52,364.86 71.02,91.16 165.45,136.74 283.29,136.74zm738.81 -580.18c54.38,-113.81 144.54,-170.73 270.43,-170.73 97.72,0 175.27,33.75 232.68,101.23 57.41,67.51 86.11,159.15 86.11,274.99 0,119.87 -30.97,216.81 -92.91,290.85 -61.95,74.01 -143.28,111.03 -244,111.03 -116.84,0 -200.95,-47.85 -252.31,-143.52l0 126.91c0,118.84 4.02,190.62 12.07,215.3 8.07,24.68 31.24,37.02 69.51,37.02 7.04,0 17.63,-0.52 31.72,-1.52 14.13,-1 24.68,-1.51 31.73,-1.51 2.03,-1 5.05,-1.51 9.07,-1.51 21.15,0 31.73,6.56 31.73,19.63 0,12.1 -9.56,18.15 -28.7,18.15 -3.03,0 -4.54,0 -4.54,0l-52.87 -4.54 -104.26 -4.54 -30.21 0 -42.31 1.52 -63.46 3.02 -52.87 4.54c-1,0 -2.51,0 -4.54,0 -19.14,0 -28.7,-6.05 -28.7,-18.15 0,-13.07 11.07,-19.63 33.24,-19.63 2,0 4.54,0.51 7.56,1.51 7.05,0 17.88,0.51 32.48,1.51 14.59,1 25.41,1.52 32.49,1.52 38.26,0 61.43,-12.1 69.48,-36.27 8.07,-24.17 12.09,-95.18 12.09,-213.02l0 -522.77c0,-73.53 0,-105.26 0,-95.18 -2.02,-52.39 -9.56,-82.6 -22.65,-90.65 -8.08,-5.05 -21.17,-7.56 -39.29,-7.56 -6.05,0 -22.66,1 -49.85,3.02l-45.34 3.03c-20.14,0 -30.21,-6.56 -30.21,-19.66 0,-13.1 8.56,-19.63 25.68,-19.63l4.53 0 43.83 3.02 34.73 1.52 18.14 0c8.05,0 19.9,-0.76 35.51,-2.27 15.61,-1.52 27.43,-2.27 35.51,-2.27 20.14,0 30.21,10.58 30.21,31.73 0,6.05 -0.51,11.07 -1.51,15.12l0 108.76zm256.85 577.16c88.62,0 159.15,-32.73 211.51,-98.21 52.38,-65.46 78.58,-153.11 78.58,-262.9 0,-113.81 -23.93,-201.68 -71.78,-263.62 -47.84,-61.95 -116.08,-92.92 -204.73,-92.92 -83.6,0 -150.08,28.7 -199.41,86.11 -29.22,33.24 -48.88,68.24 -58.95,105.01 -10.07,36.75 -15.09,89.89 -15.09,159.4 0,74.53 1.51,123.37 4.53,146.54 7.05,54.39 25.17,98.21 54.39,131.45 51.36,59.43 118.35,89.14 200.95,89.14zm1118.04 -417c0,21.17 -4.78,33.75 -14.34,37.77 -9.59,4.03 -24.44,6.05 -44.58,6.05l-534.84 0c-14.1,0 -22.93,2 -26.44,6.05 -3.53,4.02 -5.29,14.09 -5.29,30.21 0,100.72 27.44,182.06 82.33,244 54.9,61.94 126.67,92.92 215.32,92.92 95.67,0 170.71,-33.73 225.12,-101.24 21.14,-26.16 36.24,-54.89 45.31,-86.11 0,-3.02 2.51,-15.61 7.56,-37.77 4.02,-17.12 11.58,-25.68 22.66,-25.68 12.09,0 18.14,7.04 18.14,21.14 0,17.14 -5.54,39.8 -16.63,67.99 -24.17,60.43 -62.7,107.53 -115.57,141.28 -52.9,33.73 -114.58,50.6 -185.08,50.6 -102.74,0 -185.34,-34.75 -247.8,-104.23 -62.43,-69.5 -93.67,-161.18 -93.67,-274.99 0,-117.84 32.48,-213.78 97.45,-287.82 64.97,-74.04 148.84,-111.06 251.56,-111.06 89.64,0 165.2,32 226.63,95.96 61.45,63.95 92.16,142.25 92.16,234.93zm-619.44 -13.59c0,15.1 11.07,22.66 33.24,22.66l519.72 0c17.14,0 25.7,-8.05 25.7,-24.17 0,-64.48 -22.17,-125.91 -66.48,-184.34 -51.38,-67.48 -122.89,-101.21 -214.56,-101.21 -69.48,0 -129.18,19.39 -179.03,58.16 -49.84,38.78 -85.35,93.43 -106.52,163.94 -8.05,26.19 -12.07,47.82 -12.07,64.96zm960.91 -240.24l0 81.6c35.24,-63.45 80.06,-106.76 134.45,-129.93 46.33,-19.15 94.18,-28.73 143.54,-28.73 72.53,0 131.96,15.87 178.27,47.6 46.34,31.73 75.56,76.31 87.65,133.72 8.05,39.29 12.07,101.23 12.07,185.83l0 111.82c0,117.84 4.03,188.85 12.1,213.02 8.05,24.17 31.22,36.26 69.5,36.26 7.05,0 17.88,-0.51 32.49,-1.51 14.61,-1 25.43,-1.51 32.48,-1.51l7.54 0c22.17,0 33.24,6.05 33.24,18.12 0,13.1 -9.56,19.66 -28.71,19.66 -3.02,0 -4.53,0 -4.53,0l-52.87 -4.54 -63.46 -4.54 -42.31 -1.51 -28.71 0 -43.8 1.51 -61.94 4.54 -52.9 4.54c0,0 -2,0 -6.04,0 -18.12,0 -27.2,-6.05 -27.2,-18.15 0,-13.09 11.1,-19.63 33.24,-19.63l6.05 0c7.05,0 17.88,0.51 32.49,1.51 14.6,1 25.43,1.51 32.48,1.51 39.29,0 62.7,-11.82 70.26,-35.5 7.56,-23.68 11.34,-94.94 11.34,-213.78l0 -113.33c0,-127.91 -14.12,-211.51 -42.31,-250.8 -40.29,-56.41 -107.77,-84.6 -202.47,-84.6 -115.84,0 -196.9,45.82 -243.24,137.47 -19.14,37.26 -28.7,97.21 -28.7,179.81l0 131.45c0,117.84 4.02,188.85 12.07,213.02 8.07,24.17 31.24,36.26 69.51,36.26 7.04,0 17.63,-0.51 31.72,-1.51 14.1,-1 24.68,-1.51 31.73,-1.51l7.56 0c22.15,0 33.24,6.05 33.24,18.12 0,13.1 -9.07,19.66 -27.19,19.66 -5.05,0 -7.05,0 -6.05,0l-52.89 -4.54 -61.95 -4.54 -45.31 -1.51 -27.19 0 -42.31 1.51 -63.46 4.54 -52.87 4.54c-1.03,0 -2.54,0 -4.54,0 -19.14,0 -28.7,-6.05 -28.7,-18.15 0,-13.09 11.07,-19.63 33.24,-19.63l7.53 0c7.05,0 17.64,0.51 31.73,1.51 14.12,1 24.68,1.51 31.73,1.51 39.29,0 62.97,-12.09 71.02,-36.26 8.07,-24.17 12.09,-95.18 12.09,-213.02l0 -237.22c0,-72.53 0,-104.26 0,-95.18 -2.02,-52.39 -9.58,-82.6 -22.65,-90.65 -8.08,-5.05 -21.17,-7.56 -39.29,-7.56 -6.05,0 -22.68,1 -49.87,3.02l-45.32 3.03c-20.14,0 -30.21,-6.56 -30.21,-19.66 0,-13.1 9.05,-19.63 27.19,-19.63 7.05,0 22.66,1 46.82,3.02 12.1,1 23.68,1.52 34.76,1.52l28.7 0c6.05,0 15.63,-0.76 28.7,-2.27 13.1,-1.52 22.68,-2.27 28.73,-2.27 14.1,0 22.9,3.54 26.44,10.58 3.51,7.05 5.29,24.17 5.29,51.36z"/>
    <path class="fil1" d="M9116.83 3745.83c-14.12,1 -21.17,10.07 -21.17,27.19l0 142.03 3.02 214.54c0,37.26 4.03,62.45 12.1,75.55 10.07,19.14 31.22,28.7 63.46,28.7 8.04,0 23.65,-1 46.82,-3.02 23.17,-2.03 35.26,-3.03 36.26,-3.03 21.17,0 31.73,7.05 31.73,21.15 0,13.09 -10.07,19.65 -30.21,19.65 -15.1,0 -42.8,-2.02 -83.09,-6.04 -50.36,-5.05 -77.07,-7.56 -80.09,-7.56l-42.29 0c-2.02,0 -28.21,2.51 -78.57,7.56 -40.29,4.02 -68,6.04 -83.09,6.04 -21.17,0 -31.73,-6.04 -31.73,-18.14 0,-15.1 11.07,-22.66 33.24,-22.66 2,0 14.58,1 37.75,3.03 23.17,2.02 38.78,3.02 46.85,3.02 30.22,0 50.87,-10.58 61.94,-31.73 6.05,-13.09 9.56,-37.26 10.59,-72.52l3.02 -111.8 -3.02 -631.56c-1.03,-35.23 -4.54,-59.43 -10.59,-72.5 -11.07,-20.17 -31.72,-30.24 -61.94,-30.24 -7.05,0 -22.66,1.03 -46.85,3.02 -12.07,1.03 -24.68,1.52 -37.75,1.52 -22.17,0 -33.24,-6.54 -33.24,-19.63 0,-13.1 10.56,-19.64 31.73,-19.64l6.02 0 33.24 3c14.12,0 34.51,1.51 61.19,4.54 26.7,3.02 47.09,4.54 61.21,4.54l42.29 0c14.1,0 40.8,-2 80.09,-6.05 20.14,-2 34.75,-3.03 43.8,-3.03l33.24 -3 6.05 0c20.14,0 30.21,6.03 30.21,18.12 0,14.1 -10.56,21.15 -31.73,21.15 -12.07,0 -24.16,-0.49 -36.26,-1.52 -24.17,-1.99 -40.29,-3.02 -48.34,-3.02 -31.24,0 -51.87,9.59 -61.94,28.73 -8.07,13.07 -12.1,37.75 -12.1,74.01l-3.02 312.77c0,10.08 6.05,15.1 18.14,15.1l565.06 0c17.12,0 26.95,-1 29.46,-3.03 2.51,-1.99 3.78,-7.04 3.78,-15.09l0 -197.93 -3.02 -111.82c-1,-35.23 -5.03,-59.43 -12.08,-72.5 -10.09,-20.17 -30.72,-30.24 -61.96,-30.24 -8.05,0 -23.66,1.03 -46.83,3.02 -11.07,1.03 -23.17,1.52 -36.26,1.52 -22.17,0 -33.24,-6.54 -33.24,-19.63 0,-13.1 10.58,-19.64 31.73,-19.64l4.53 0 34.75 3c69.51,6.05 110.28,9.08 122.38,9.08l42.31 0c3.03,0 30.22,-2 81.58,-6.05 12.09,-1 26.19,-2 42.31,-3.03l34.75 -3 4.54 0c20.14,0 30.21,6.03 30.21,18.12 0,14.1 -10.58,21.15 -31.72,21.15 -13.1,0 -25.2,-0.49 -36.27,-1.52 -23.17,-1.99 -39.29,-3.02 -48.36,-3.02 -31.21,0 -51.87,9.59 -61.94,28.73 -8.05,13.07 -12.07,37.75 -12.07,74.01l-3.03 216.08 3.03 527.28c1,40.28 6.78,67.74 17.36,82.35 10.58,14.59 29.97,21.9 58.16,21.9 8.08,0 23.68,-1 46.85,-3.02 23.17,-2.03 35.24,-3.03 36.27,-3.03 21.14,0 31.72,7.05 31.72,21.15 0,13.09 -10.07,19.65 -30.21,19.65 -14.12,0 -41.31,-2.02 -81.6,-6.04 -50.36,-5.05 -77.55,-7.56 -81.58,-7.56l-42.31 0c-5.02,0 -31.73,2.51 -80.06,7.56 -40.32,4.02 -67.51,6.04 -81.6,6.04 -21.15,0 -31.73,-6.04 -31.73,-18.14 0,-15.1 11.07,-22.66 33.24,-22.66 9.07,0 22.92,1 41.55,3.03 18.64,2.02 32.49,3.02 41.54,3.02 31.24,0 51.87,-10.58 61.96,-31.73 7.05,-13.09 11.08,-37.26 12.08,-72.52l3.02 -111.8 0 -252.33c0,-14.1 -6.05,-21.15 -18.12,-21.15l-1.51 0 -575.64 1.52zm1288.75 -238.73c105.77,0 191.64,36.26 257.6,108.79 66,72.53 98.97,167.2 98.97,284.04 0,113.82 -32.97,206.49 -98.97,278.02 -65.96,71.5 -151.83,107.25 -257.6,107.25 -102.75,0 -186.83,-37.26 -252.31,-111.79 -65.48,-74.55 -98.21,-170.22 -98.21,-287.06 0,-111.82 32.73,-202.98 98.21,-273.48 65.48,-70.51 149.56,-105.77 252.31,-105.77zm0 747.89c92.67,0 168.22,-32.49 226.63,-97.46 58.43,-64.96 87.62,-149.32 87.62,-253.06 0,-108.77 -28.94,-197.18 -86.86,-265.17 -57.92,-67.96 -133.21,-101.96 -225.88,-101.96 -92.67,0 -167.44,32.48 -224.36,97.45 -56.9,64.97 -85.36,149.81 -85.36,254.58 0,109.79 28.19,198.17 84.6,265.14 56.41,66.99 130.94,100.48 223.61,100.48zm1142.21 -71.02c0,-38.26 0,-57.41 0,-57.41 -18.12,35.27 -38.78,63.46 -61.95,84.63 -54.38,49.33 -122.89,74.01 -205.46,74.01 -98.72,0 -171.25,-27.7 -217.59,-83.09 -25.16,-30.21 -41.8,-66.99 -49.84,-110.3 -4.03,-25.17 -6.05,-66.48 -6.05,-123.89l0 -220.58c0,-90.65 -3.03,-145.55 -9.05,-164.69 -6.05,-19.14 -23.68,-28.7 -52.9,-28.7 -14.09,0 -30.21,1 -48.33,3.02 -26.19,3.03 -40.8,4.54 -43.83,4.54 -19.14,0 -28.7,-7.05 -28.7,-21.17 0,-12.07 7.56,-18.12 22.66,-18.12l4.53 0 42.31 4.54 87.63 0 15.12 -1.52 24.17 -3.02c18.12,0 27.19,18.63 27.19,55.89l0 9.08c-1,8.04 -1.51,19.63 -1.51,34.75l0 350.52c0,53.38 2.51,92.16 7.56,116.33 7.04,40.28 23.65,74.04 49.84,101.23 41.32,43.31 100.72,64.97 178.3,64.97 102.72,0 175.76,-35.76 219.07,-107.26 31.22,-51.38 46.83,-127.94 46.83,-229.66l0 -170.73c0,-101.72 -3.76,-159.4 -11.32,-173.01 -7.56,-13.58 -23.92,-20.38 -49.12,-20.38 -15.09,0 -31.72,1 -49.84,3.02l-43.83 4.54c-19.14,0 -28.7,-6.56 -28.7,-19.66 0,-13.1 8.05,-19.63 24.17,-19.63l4.53 0 40.8 4.54 75.55 0c15.1,0 25.68,-0.76 31.73,-2.27 6.03,-1.52 12.59,-2.27 19.63,-2.27 19.15,0 28.71,20.14 28.71,60.43 0,14.1 -0.51,24.17 -1.51,30.22 0,3.02 0,18.14 0,45.33 -1,28.19 -1.52,54.9 -1.52,80.07l0 305.2c0,101.72 3.54,159.4 10.59,172.98 7.05,13.61 23.65,20.42 49.85,20.42 3.02,0 19.14,-1.52 48.36,-4.54 20.14,-2.02 35.75,-3.02 46.82,-3.02 19.14,0 28.7,6.53 28.7,19.63 0,13.09 -9.04,19.65 -27.19,19.65l-3.02 0 -43.8 -3.02 -34.75 -1.51 -18.15 0c-3.02,0 -8.05,0.51 -15.09,1.51 -7.05,0 -13.1,0 -18.15,0 -7.05,1 -15.61,1.51 -25.68,1.51 -15.09,0 -25.17,-4.29 -30.21,-12.85 -5.03,-8.56 -7.56,-25.44 -7.56,-50.6l0 -19.66zm619.46 101.23c-118.86,0 -206.49,-42.29 -262.9,-126.91 2.03,18.14 3.54,30.73 4.54,37.78 2.02,40.28 3.02,57.92 3.02,52.87 0,22.17 -6.53,33.24 -19.63,33.24 -15.12,0 -22.68,-10.07 -22.68,-30.22 0,-12.07 1.51,-30.97 4.54,-56.65 3.02,-25.68 4.53,-60.19 4.53,-103.5 0,-47.34 -1.51,-84.09 -4.53,-110.28 -3.03,-26.19 -4.54,-39.8 -4.54,-40.8 0,-17.12 6.56,-25.68 19.66,-25.68 14.09,0 21.14,12.58 21.14,37.78 0,1 -0.51,5.78 -1.51,14.34 -1,8.56 -1.51,17.87 -1.51,27.94 -1,14.12 -1.51,28.22 -1.51,42.32 0,64.45 24.16,116.84 72.52,157.12 48.34,40.29 111.31,60.44 188.86,60.44 72.53,0 130.94,-17.12 175.27,-51.36 44.31,-34.24 66.48,-79.07 66.48,-134.48 0,-50.36 -16.63,-87.13 -49.87,-110.3 -33.24,-23.14 -91.65,-39.78 -175.25,-49.85 -97.72,-11.07 -163.17,-23.68 -196.41,-37.77 -28.22,-12.07 -50.88,-31.98 -68,-59.68 -17.12,-27.7 -25.68,-57.68 -25.68,-89.89 0,-60.43 24.42,-111.31 73.26,-152.59 48.85,-41.32 110.06,-61.97 183.59,-61.97 99.7,0 176.25,41.31 229.63,123.91l0 -72.53c0,-29.21 6.05,-43.82 18.15,-43.82 12.07,0 18.12,8.07 18.12,24.19 0,5.02 -1.51,17.61 -4.54,37.75 0,2.03 -0.49,8.56 -1.51,19.66 -1,11.07 -1.49,21.14 -1.49,30.22l-1.51 55.89c0,41.29 0.49,66.24 1.51,74.8 1,8.56 2,16.87 3,24.92 0,9.07 0,13.61 0,13.61 0,17.12 -6.53,25.68 -19.63,25.68 -12.1,0 -18.12,-8.07 -18.12,-24.19l0 -3 3.02 -34.75c1,-12.1 1.49,-15.64 1.49,-10.59 0,-62.46 -20.9,-113.3 -62.7,-152.59 -41.8,-39.29 -96.43,-58.92 -163.91,-58.92 -62.45,0 -114.08,16.36 -154.88,49.09 -40.78,32.73 -61.19,74.8 -61.19,126.16 0,49.36 15.88,84.86 47.61,106.52 31.72,21.66 89.89,37.02 174.49,46.07 89.65,9.07 156.13,23.17 199.44,42.31 62.45,27.19 93.67,76.55 93.67,148.06 0,67.5 -26.44,122.64 -79.31,165.44 -52.89,42.82 -121.13,64.21 -204.73,64.21zm1086.31 -447.21c0,21.17 -4.78,33.75 -14.34,37.77 -9.58,4.03 -24.43,6.05 -44.58,6.05l-534.84 0c-14.09,0 -22.92,2 -26.43,6.05 -3.54,4.02 -5.3,14.09 -5.3,30.21 0,100.72 27.44,182.06 82.34,244 54.89,61.94 126.66,92.92 215.31,92.92 95.67,0 170.71,-33.73 225.12,-101.24 21.15,-26.16 36.24,-54.89 45.31,-86.11 0,-3.02 2.52,-15.61 7.56,-37.77 4.03,-17.12 11.59,-25.68 22.66,-25.68 12.1,0 18.14,7.04 18.14,21.14 0,17.14 -5.53,39.8 -16.63,67.99 -24.17,60.43 -62.7,107.53 -115.57,141.28 -52.9,33.73 -114.57,50.6 -185.08,50.6 -102.74,0 -185.34,-34.75 -247.8,-104.23 -62.43,-69.5 -93.67,-161.18 -93.67,-274.99 0,-117.84 32.49,-213.78 97.45,-287.82 64.97,-74.04 148.84,-111.06 251.56,-111.06 89.65,0 165.2,32 226.63,95.96 61.46,63.95 92.16,142.25 92.16,234.93zm-619.44 -13.59c0,15.1 11.07,22.66 33.24,22.66l519.72 0c17.15,0 25.71,-8.05 25.71,-24.17 0,-64.48 -22.17,-125.91 -66.48,-184.34 -51.39,-67.48 -122.89,-101.21 -214.56,-101.21 -69.48,0 -129.18,19.39 -179.03,58.16 -49.85,38.78 -85.36,93.43 -106.53,163.94 -8.04,26.19 -12.07,47.82 -12.07,64.96z"/>
   </g>
   <path class="fil1" d="M2126.63 7085.39l-68.59 -186.71c-7.63,-20.33 -15.56,-33.04 -23.82,-38.11 -8.26,-5.09 -25.09,-7.63 -50.48,-7.63l-339.16 0c-25.39,0 -42.85,4.44 -52.38,13.33 -9.53,8.9 -21.92,33.04 -37.15,72.4l-55.27 146.72c-5.07,13.96 -7.6,27.31 -7.6,40.01 0,40.65 24.76,60.97 74.3,60.97 12.7,0 30.79,-1.27 54.3,-3.82 23.49,-2.54 40.96,-3.81 52.39,-3.81 52.07,0 78.12,22.23 78.12,66.7 0,41.91 -28.58,62.87 -85.73,62.87 -10.16,0 -24.15,-1.27 -41.93,-3.82l-95.26 -13.33c-17.79,-2.54 -47.01,-3.81 -87.65,-3.81 -44.45,0 -75.57,1.27 -93.36,3.81l-80.02 11.43c-35.56,5.09 -61.61,7.62 -78.11,7.62 -49.54,0 -74.3,-20.96 -74.3,-62.87 0,-44.47 24.13,-66.69 72.4,-66.69 10.16,0 17.77,0.63 22.86,1.9l24.76 0c34.31,0 60.34,-13.33 78.12,-40.01 7.63,-10.17 20.33,-40 38.11,-89.54l354.37 -958.36c20.32,-53.36 60.34,-80.02 120.04,-80.02 58.43,0 97.18,26.66 116.23,80.02l341.04 945.01c21.59,59.7 41.28,99.08 59.07,118.14 17.78,19.05 43.18,28.58 76.2,28.58 10.16,0 17.79,-0.63 22.88,-1.9 35.55,-2.56 53.34,-3.82 53.34,-3.82 48.27,0 72.4,20.32 72.4,60.97 0,43.18 -24.13,64.79 -72.4,64.79 -13.96,0 -32.39,-1.29 -55.26,-3.82 -80.01,-8.9 -139.71,-13.34 -179.09,-13.34 -47,0 -123.21,5.08 -228.64,15.24 -26.67,2.55 -46.99,3.82 -60.97,3.82 -50.81,0 -76.21,-21.59 -76.21,-64.79 0,-43.18 27.95,-64.78 83.83,-64.78 11.43,0 28.26,1.27 50.5,3.81 22.23,2.55 39.05,3.82 50.48,3.82 41.92,0 62.88,-17.15 62.88,-51.44 0,-5.09 -5.08,-21.59 -15.24,-49.54zm-137.19 -388.68l-171.46 -525.86 -175.3 525.86c-2.54,7.61 -3.8,12.07 -3.8,13.33 0,11.43 9.52,17.16 28.58,17.16l302.93 0c15.25,0 22.87,-5.09 22.87,-15.25 0,-2.54 -1.26,-7.63 -3.82,-15.24zm1032.68 -381.07c125.76,0 219.75,48.91 281.99,146.72l0 -192.43c0,-50.81 -1.27,-81.93 -3.83,-93.36 -6.33,-39.38 -24.12,-59.07 -53.34,-59.07 -10.16,0 -24.45,1.91 -42.85,5.71 -18.43,3.82 -32.72,5.72 -42.88,5.72 -47,0 -70.5,-20.32 -70.5,-60.97 0,-41.91 31.76,-62.87 95.26,-62.87 10.16,0 28.59,1.27 55.27,3.81 40.64,3.82 61.6,5.72 62.87,5.72 11.43,0 27.95,-1.27 49.54,-3.82 21.59,-2.54 38.09,-3.81 49.54,-3.81 35.55,0 53.34,25.42 53.34,76.23l0 20.95c-1.27,3.81 -2.53,37.46 -3.82,100.97 0,7.62 -1.9,56.53 -5.71,146.71 -2.53,63.51 -3.8,111.78 -3.8,144.8l0 186.71 3.8 318.2c1.27,83.83 5.07,135.9 11.43,156.23 6.36,20.32 21.59,30.48 45.72,30.48 16.52,0 29.22,-1.27 38.11,-3.8 20.32,-2.56 34.31,-3.82 41.92,-3.82 47,0 70.49,20.95 70.49,62.87 0,43.2 -28.58,64.79 -85.73,64.79 -12.69,0 -32.08,-1.59 -58.1,-4.76 -26.05,-3.19 -45.42,-4.77 -58.13,-4.77 -3.8,0 -18.4,1.27 -43.82,3.81 -15.23,3.82 -28.58,5.72 -40.01,5.72 -34.29,0 -51.44,-22.86 -51.44,-68.6l0 -9.52 1.9 -32.39c-67.31,90.19 -165.12,135.27 -293.4,135.27 -129.56,0 -233.71,-46.99 -312.47,-140.99 -78.76,-93.99 -118.14,-217.2 -118.14,-369.62 0,-153.7 38.75,-276.6 116.24,-368.68 77.47,-92.09 180.98,-138.14 310.55,-138.14zm270.56 672.57c5.07,-41.91 7.6,-95.89 7.6,-161.95 0,-85.1 -3.16,-142.9 -9.5,-173.38 -11.45,-63.51 -38.75,-113.05 -81.93,-148.6 -50.81,-41.92 -109.24,-62.87 -175.3,-62.87 -88.9,0 -158.46,33.65 -208.63,100.98 -50.17,67.31 -75.26,159.39 -75.26,276.26 0,120.67 26.05,215.6 78.12,284.83 52.08,69.23 123.21,103.85 213.39,103.85 68.6,0 125.75,-20.02 171.48,-60.03 45.72,-39.99 72.4,-93.03 80.03,-159.09zm733.53 -584.91l0 51.44c66.04,-92.72 154.33,-139.1 264.84,-139.1 88.9,0 160.99,25.09 216.23,75.27 55.27,50.17 82.89,114.64 82.89,193.39 0,55.88 -13.96,101.29 -41.91,136.23 -27.95,34.92 -64.79,52.39 -110.51,52.39 -29.22,0 -53.98,-8.9 -74.3,-26.67 -20.33,-17.78 -30.49,-39.37 -30.49,-64.79 0,-20.32 7.61,-38.42 22.86,-54.3 15.23,-15.87 33.02,-23.8 53.34,-23.8 3.81,0 12.07,1.9 24.78,5.7 7.61,-15.23 11.43,-29.21 11.43,-41.91 0,-36.84 -16.19,-67.96 -48.6,-93.36 -32.38,-25.41 -72.7,-38.11 -120.97,-38.11 -99.08,0 -165.12,44.45 -198.14,133.37 -20.33,54.63 -30.49,137.19 -30.49,247.7l0 125.74c0,85.1 0.63,132.74 1.9,142.9 6.34,72.4 26.03,108.61 59.07,108.61 16.5,0 33.65,-2.56 51.44,-7.63 13.97,-3.82 26.03,-5.72 36.19,-5.72 40.65,0 60.97,20.32 60.97,60.97 0,44.46 -26.03,66.69 -78.12,66.69l-7.61 0c-19.05,0 -47.94,-2.23 -86.69,-6.67 -38.74,-4.45 -67.63,-6.68 -86.69,-6.68 -50.81,0 -90.82,1.29 -120.04,3.82l-106.7 9.53c-52.08,0 -78.11,-22.23 -78.11,-66.69 0,-39.38 24.13,-59.07 72.4,-59.07 12.7,0 22.23,0.63 28.58,1.92l28.59 5.7c12.7,2.54 21.59,3.83 26.66,3.83 31.75,0 48.91,-29.22 51.44,-87.65l3.82 -97.18 -5.72 -432.49c-3.8,-74.94 -22.86,-112.42 -57.17,-112.42 -10.16,0 -24.12,1.91 -41.91,5.71 -17.77,3.82 -31.75,5.72 -41.91,5.72 -41.92,0 -62.88,-20.32 -62.88,-60.97 0,-44.44 27.32,-66.69 81.93,-66.69 12.7,0 31.75,1.6 57.17,4.77 25.39,3.18 44.45,4.76 57.14,4.76 10.17,0 26.69,-1.27 49.54,-3.8 10.17,-2.54 22.23,-3.81 36.21,-3.81 33.02,0 49.54,17.77 49.54,53.35zm956.46 344.86l0 247.68c0,63.5 0.63,100.98 1.9,112.41 6.34,57.16 23.49,85.75 51.44,85.75 6.34,0 22.23,-3.19 47.62,-9.53 6.36,-2.56 15.89,-3.82 28.58,-3.82 48.28,0 72.4,20.95 72.4,62.87 0,17.79 -7.93,33.04 -23.8,45.73 -15.88,12.7 -35.88,19.06 -60.02,19.06 -20.33,0 -51.12,-2.86 -92.4,-8.59 -41.28,-5.7 -72.09,-8.56 -92.41,-8.56 -33.02,0 -69.87,2.53 -110.51,7.62 -49.54,6.34 -82.56,9.53 -99.08,9.53 -50.81,0 -76.21,-21.59 -76.21,-64.79 0,-41.92 21.59,-62.87 64.78,-62.87 10.16,0 25.08,1.9 44.77,5.72 19.69,3.8 34.62,5.71 44.78,5.71 30.48,0 48.91,-40.65 55.26,-121.94 0,-5.07 0,-60.34 0,-165.76l0 -156.22c0,-105.44 0,-160.69 0,-165.78 -6.35,-80 -25.41,-120.02 -57.16,-120.02 -10.16,0 -24.46,2.21 -42.88,6.67 -18.42,4.44 -32.06,6.66 -40.95,6.66 -45.74,0 -68.6,-20.32 -68.6,-60.97 0,-43.18 27.95,-64.77 83.83,-64.77 24.15,0 41.28,0.64 51.44,1.9 40.65,5.07 66.7,7.63 78.13,7.63 10.16,0 25.72,-1.59 46.67,-4.76 20.96,-3.19 36.52,-4.77 46.68,-4.77 36.85,0 55.27,24.76 55.27,74.3 0,5.07 -0.66,12.7 -1.92,22.86 -1.27,10.16 -1.91,17.79 -1.91,22.86 -1.26,10.16 -2.53,49.54 -3.8,118.14 -1.27,52.07 -1.9,105.41 -1.9,160.05zm-99.08 -499.19c-29.22,0 -54.3,-10.49 -75.26,-31.44 -20.96,-20.96 -31.45,-46.05 -31.45,-75.27 0,-29.21 10.49,-53.97 31.45,-74.3 20.96,-20.32 46.04,-30.48 75.26,-30.48 29.22,0 54.3,10.16 75.26,30.48 20.96,20.33 31.43,45.09 31.43,74.3 0,29.22 -10.47,54.31 -31.43,75.27 -20.96,20.95 -46.04,31.44 -75.26,31.44zm3953.18 836.42l-68.6 -186.71c-7.62,-20.33 -15.56,-33.04 -23.82,-38.11 -8.26,-5.09 -25.08,-7.63 -50.48,-7.63l-339.15 0c-25.4,0 -42.86,4.44 -52.39,13.33 -9.52,8.9 -21.91,33.04 -37.15,72.4l-55.26 146.72c-5.07,13.96 -7.61,27.31 -7.61,40.01 0,40.65 24.76,60.97 74.3,60.97 12.7,0 30.8,-1.27 54.31,-3.82 23.49,-2.54 40.95,-3.81 52.38,-3.81 52.08,0 78.12,22.23 78.12,66.7 0,41.91 -28.58,62.87 -85.73,62.87 -10.16,0 -24.14,-1.27 -41.93,-3.82l-95.26 -13.33c-17.78,-2.54 -47,-3.81 -87.65,-3.81 -44.45,0 -75.57,1.27 -93.35,3.81l-80.03 11.43c-35.55,5.09 -61.6,7.62 -78.1,7.62 -49.54,0 -74.3,-20.96 -74.3,-62.87 0,-44.47 24.12,-66.69 72.4,-66.69 10.16,0 17.76,0.63 22.85,1.9l24.77 0c34.3,0 60.33,-13.33 78.12,-40.01 7.62,-10.17 20.32,-40 38.11,-89.54l354.37 -958.36c20.32,-53.36 60.33,-80.02 120.03,-80.02 58.44,0 97.18,26.66 116.24,80.02l341.04 945.01c21.59,59.7 41.28,99.08 59.06,118.14 17.79,19.05 43.19,28.58 76.21,28.58 10.16,0 17.78,-0.63 22.87,-1.9 35.56,-2.56 53.35,-3.82 53.35,-3.82 48.27,0 72.4,20.32 72.4,60.97 0,43.18 -24.13,64.79 -72.4,64.79 -13.97,0 -32.39,-1.29 -55.27,-3.82 -80,-8.9 -139.7,-13.34 -179.08,-13.34 -47.01,0 -123.21,5.08 -228.65,15.24 -26.66,2.55 -46.98,3.82 -60.97,3.82 -50.81,0 -76.2,-21.59 -76.2,-64.79 0,-43.18 27.95,-64.78 83.83,-64.78 11.43,0 28.25,1.27 50.5,3.81 22.22,2.55 39.05,3.82 50.48,3.82 41.91,0 62.87,-17.15 62.87,-51.44 0,-5.09 -5.07,-21.59 -15.23,-49.54zm-137.19 -388.68l-171.46 -525.86 -175.3 525.86c-2.54,7.61 -3.81,12.07 -3.81,13.33 0,11.43 9.53,17.16 28.59,17.16l302.92 0c15.25,0 22.88,-5.09 22.88,-15.25 0,-2.54 -1.27,-7.63 -3.82,-15.24zm933.59 -192.43l1.93 592.54c1.26,64.77 18.4,97.18 51.44,97.18 7.6,0 23.49,-3.19 47.62,-9.53 15.25,-2.56 25.41,-3.82 30.48,-3.82 41.92,0 62.89,21.59 62.89,64.79 0,41.91 -26.05,62.87 -78.12,62.87 -20.32,0 -52.71,-2.56 -97.18,-7.63 -44.45,-5.07 -78.74,-7.62 -102.88,-7.62 -20.33,0 -50.81,2.55 -91.46,7.62 -40.64,5.07 -70.49,7.63 -89.55,7.63l-9.51 0c-53.36,0 -80.02,-22.86 -80.02,-68.6 0,-39.37 21.59,-59.06 64.77,-59.06 2.54,0 6.99,0 13.33,0 7.63,1.26 13.35,1.9 17.15,1.9 31.76,5.09 50.18,7.62 55.25,7.62 22.88,0 37.17,-9.83 42.87,-29.52 5.73,-19.69 9.22,-70.82 10.49,-153.38l1.9 -133.37 5.71 -295.32 -1.9 -339.14c-1.27,-38.11 -3.17,-63.5 -5.71,-76.22 -8.89,-29.22 -26.68,-43.81 -53.36,-43.81 -3.8,0 -20.32,2.53 -49.52,7.62 -13.99,2.54 -25.42,3.8 -34.31,3.8 -43.18,0 -64.77,-20.32 -64.77,-60.96 0,-41.92 25.39,-62.88 76.2,-62.88 13.98,0 26.05,0.64 36.21,1.91l45.72 5.72c20.32,2.54 37.47,3.8 51.44,3.8 12.72,0 31.77,-2.22 57.16,-6.66 25.42,-4.44 44.45,-6.67 57.17,-6.67 29.22,0 43.82,18.42 43.82,55.25 0,12.71 -0.64,22.22 -1.91,28.58 -8.89,97.81 -13.35,236.25 -13.35,415.36zm1110.81 821.16c-104.18,0 -168.31,-45.08 -192.44,-135.27 -64.79,95.28 -166.41,142.9 -304.85,142.9 -102.88,0 -185.13,-25.39 -246.74,-76.2 -61.6,-50.81 -92.39,-118.77 -92.39,-203.87 0,-105.44 45.08,-182.91 135.27,-232.45 34.28,-19.05 63.83,-31.44 88.59,-37.15 24.78,-5.72 74.63,-13.02 149.56,-21.91 106.71,-11.43 176.24,-27.32 208.63,-47.64 32.39,-20.33 48.6,-57.78 48.6,-112.41 0,-52.08 -18.12,-93.03 -54.31,-122.88 -36.2,-29.85 -86.69,-44.78 -151.48,-44.78 -57.15,0 -110.51,15.87 -160.03,47.64 -19.05,12.7 -28.58,26.03 -28.58,40.01 0,5.07 5.7,11.43 17.13,19.04 17.79,12.71 26.68,34.3 26.68,64.79 0,25.39 -9.2,46.35 -27.62,62.87 -18.42,16.52 -41.61,24.76 -69.54,24.76 -33.03,0 -60.66,-11.43 -82.88,-34.29 -22.23,-22.86 -33.35,-50.81 -33.35,-83.83 0,-71.13 35.25,-132.1 105.75,-182.9 70.49,-50.81 155.92,-76.23 256.26,-76.23 231.17,0 346.77,111.15 346.77,333.44l0 384.87c0,60.97 1.26,97.16 3.8,108.59 7.63,44.46 29.22,66.69 64.77,66.69 44.47,0 66.7,-40.65 66.7,-121.94l0 -93.36c0,-40.64 19.68,-60.96 59.06,-60.96 41.92,0 62.87,30.48 62.87,91.45l0 9.53 -1.9 108.59c-2.53,121.93 -67.32,182.9 -194.33,182.9zm-211.5 -379.14l1.91 -135.27c-27.95,25.39 -57.48,43.18 -88.6,53.34 -31.12,10.16 -86.69,19.06 -166.71,26.68 -144.8,13.97 -217.2,67.31 -217.2,160.05 0,48.25 17.46,86.36 52.38,114.31 34.95,27.93 82.26,41.92 141.96,41.92 85.1,0 152.1,-23.19 201,-69.54 48.91,-46.37 74,-110.2 75.26,-191.49zm758.3 -539.2l0 53.36c76.2,-96.54 177.82,-144.82 304.85,-144.82 68.59,0 133.36,17.48 194.33,52.41 60.97,34.92 102.25,78.43 123.84,130.5 17.79,43.2 26.69,99.72 26.69,169.58l0 361.99c0,54.63 0.63,87.02 1.9,97.18 6.34,43.18 23.49,64.78 51.44,64.78 11.43,0 26.35,-1.58 44.78,-4.77 18.42,-3.17 31.42,-4.76 39.05,-4.76 16.52,0 30.81,5.72 42.87,17.15 12.07,11.43 18.1,25.42 18.1,41.92 0,19.05 -7.63,34.94 -22.86,47.63 -15.25,12.7 -33.66,19.06 -55.27,19.06 -17.76,0 -46.98,-2.56 -87.63,-7.63 -40.64,-5.07 -78.75,-7.62 -114.31,-7.62 -33.04,0 -60.34,1.27 -81.93,3.82 -63.52,7.61 -97.18,11.43 -100.98,11.43 -50.81,0 -76.22,-22.23 -76.22,-66.69 0,-39.38 21.59,-59.07 64.79,-59.07 10.16,0 21.59,1.29 34.29,3.82 24.13,5.07 39.38,7.63 45.72,7.63 30.48,0 47,-34.94 49.54,-104.81l3.82 -97.16 1.9 -116.23 0 -144.8c0,-67.33 -3.17,-113.68 -9.53,-139.09 -11.43,-48.25 -36.2,-85.73 -74.3,-112.41 -41.93,-29.2 -89.55,-43.82 -142.89,-43.82 -101.62,0 -174.67,36.21 -219.12,108.61 -30.48,49.54 -45.72,134 -45.72,253.41l0 253.4c0,55.88 3.81,93.99 11.43,114.31 7.61,20.33 21.59,30.49 41.92,30.49 10.16,0 24.12,-2.56 41.91,-7.63 17.79,-5.09 32.39,-7.62 43.82,-7.62 39.37,0 59.06,21.59 59.06,64.79 0,41.91 -25.39,62.87 -76.2,62.87 -10.16,0 -43.2,-3.82 -99.08,-11.43 -27.95,-3.82 -59.07,-5.72 -93.35,-5.72 -26.69,0 -62.24,2.53 -106.71,7.62 -55.88,6.34 -87.63,9.53 -95.26,9.53 -53.34,0 -80.02,-21.59 -80.02,-64.79 0,-40.65 20.32,-60.97 60.97,-60.97 6.35,0 18.09,1.92 35.25,5.72 17.15,3.81 33.98,5.73 50.48,5.73 38.11,0 57.8,-36.85 59.06,-110.51l3.83 -211.49 0 -230.55 -3.83 -66.68c-2.53,-43.18 -7.93,-72.72 -16.19,-88.59 -8.26,-15.88 -22.55,-23.82 -42.87,-23.82 -8.88,0 -21.9,1.58 -39.06,4.77 -17.15,3.17 -30.15,4.76 -39.05,4.76 -45.73,0 -68.59,-20.32 -68.59,-60.97 0,-41.91 28.58,-62.89 85.73,-62.89 7.62,0 13.98,0.65 19.05,1.92l70.5 7.61c20.32,0 38.11,-1.27 53.34,-3.8 33.04,-2.54 50.18,-3.81 51.44,-3.81 36.85,0 55.27,19.06 55.27,57.15zm-4463.51 45.29c0,110.34 -71.55,202.27 -214.68,275.81l16.41 26.83c26.83,44.74 74.55,115.79 143.12,213.2l16.41 20.86 8.93 -25.33 58.15 -153.56c69.57,-182.87 168.46,-274.3 296.68,-274.3 59.63,0 107.84,17.13 144.61,51.42 36.76,34.29 55.16,79.25 55.16,134.92 0,52.67 -17.4,97.16 -52.19,133.43 -34.78,36.28 -78.02,54.42 -129.7,54.42 -37.76,0 -68.57,-9.45 -92.43,-28.34 -23.86,-18.88 -35.79,-43.72 -35.79,-74.53 0,-47.71 20.88,-71.57 62.63,-71.57 35.78,0 53.67,16.4 53.67,49.21 0,3.98 -2.48,11.91 -7.46,23.84 13.91,2 21.86,3 23.86,3 18.88,0 35.29,-7.95 49.19,-23.86 13.91,-15.9 20.88,-35.29 20.88,-58.14 0,-28.82 -9.2,-51.93 -27.58,-69.33 -18.38,-17.38 -43.49,-26.09 -75.3,-26.09 -51.67,0 -93.91,28.32 -126.72,84.98 -26.84,45.72 -59.63,121.75 -98.39,228.09 -20.86,57.65 -40.24,102.37 -58.15,134.18 42.74,47.71 78.53,79.5 107.34,95.41 28.84,15.9 65.1,23.86 108.84,23.86 8.95,0 22.11,-1 39.52,-2.98 17.38,-2 30.56,-2.98 39.49,-2.98 40.76,0 61.12,18.38 61.12,55.15 0,34.79 -20.86,52.19 -62.6,52.19 -1,0 -8.95,0 -23.86,0 -13.92,-1 -27.83,-1.5 -41.74,-1.5l-79.02 0c-68.58,0 -141.63,-40.24 -219.14,-120.74 -26.84,30.79 -49.69,52.67 -68.6,65.58 -61.6,42.74 -132.67,64.12 -213.18,64.12 -90.43,0 -164.49,-27.34 -222.13,-82.01 -57.65,-54.67 -86.46,-125.22 -86.46,-211.7 0,-116.27 48.69,-205.23 146.08,-266.85 32.81,-20.88 63.12,-38.27 90.96,-52.17l17.88 -8.96c-52.67,-95.41 -79,-171.94 -79,-229.58 0,-59.65 20.61,-107.84 61.87,-144.61 41.24,-36.78 95.66,-55.17 163.24,-55.17 70.57,0 126.22,17.39 166.96,52.18 40.76,34.78 61.12,82 61.12,141.62zm-330.95 0c0,37.77 21.86,99.89 65.6,186.37 96.41,-45.72 144.61,-104.36 144.61,-175.92 0,-31.81 -9.7,-57.39 -29.07,-76.77 -19.38,-19.39 -45.48,-29.09 -78.27,-29.09 -30.82,0 -55.67,8.7 -74.55,26.09 -18.89,17.4 -28.32,40.51 -28.32,69.32zm67.08 430.86c-23.84,-36.76 -45.22,-71.55 -64.1,-104.36 -37.77,17.88 -68.58,37.27 -92.44,58.15 -54.66,46.71 -81.98,105.84 -81.98,177.41 0,55.65 17.63,100.62 52.92,134.9 35.29,34.31 81.26,51.45 137.9,51.45 84.48,0 152.56,-34.29 204.23,-102.87 -66.57,-85.48 -118.77,-157.03 -156.53,-214.68z"/>
   <rect class="fil0" x="6207.11" y="7392.42" width="1034.6" height="76.08"/>
  </g>
 </g>
</svg>
